<?xml version="1.0" encoding="UTF-8" standalone="no"?>
<!DOCTYPE svg PUBLIC "-//W3C//DTD SVG 1.1//EN"
 "http://www.w3.org/Graphics/SVG/1.1/DTD/svg11.dtd">
<!-- Generated by graphviz version 2.40.1 (20161225.0304)
 -->
<!-- Title: dependencies Pages: 1 -->
<svg width="662pt" height="211pt"
 viewBox="0.00 0.00 662.00 211.00" xmlns="http://www.w3.org/2000/svg" xmlns:xlink="http://www.w3.org/1999/xlink">
<g id="graph0" class="graph" transform="scale(1 1) rotate(0) translate(4 207)">
<title>dependencies</title>
<polygon fill="#ffffff" stroke="transparent" points="-4,4 -4,-207 658,-207 658,4 -4,4"/>
<text text-anchor="start" x="306.0091" y="-42.4" font-family="sans-serif" font-weight="bold" font-size="14.00" fill="#000000">Legend</text>
<polygon fill="#ffffb3" stroke="transparent" points="93,-10 93,-30 113,-30 113,-10 93,-10"/>
<text text-anchor="start" x="116.629" y="-15.4" font-family="sans-serif" font-size="14.00" fill="#000000"> &#160;Declarations</text>
<polygon fill="#8dd3c7" stroke="transparent" points="206,-10 206,-30 226,-30 226,-10 206,-10"/>
<text text-anchor="start" x="229.7251" y="-15.4" font-family="sans-serif" font-size="14.00" fill="#000000"> &#160;Module</text>
<polygon fill="#80b1d3" stroke="transparent" points="292,-10 292,-30 312,-30 312,-10 292,-10"/>
<text text-anchor="start" x="315.7812" y="-15.4" font-family="sans-serif" font-size="14.00" fill="#000000"> &#160;Bootstrap</text>
<polygon fill="#fdb462" stroke="transparent" points="389,-10 389,-30 409,-30 409,-10 389,-10"/>
<text text-anchor="start" x="412.6732" y="-15.4" font-family="sans-serif" font-size="14.00" fill="#000000"> &#160;Providers</text>
<polygon fill="#fb8072" stroke="transparent" points="485,-10 485,-30 505,-30 505,-10 485,-10"/>
<text text-anchor="start" x="508.7258" y="-15.4" font-family="sans-serif" font-size="14.00" fill="#000000"> &#160;Exports</text>
<g id="clust1" class="cluster">
<title>cluster_VideopageModule</title>
<polygon fill="none" stroke="#000000" stroke-dasharray="1,5" points="8,-70 8,-195 646,-195 646,-70 8,-70"/>
</g>
<g id="clust2" class="cluster">
<title>cluster_VideopageModule_declarations</title>
<polygon fill="none" stroke="#000000" points="16,-78 16,-130 638,-130 638,-78 16,-78"/>
</g>
<!-- PlayerComponent -->
<g id="node1" class="node">
<title>PlayerComponent</title>
<polygon fill="#ffffb3" stroke="#000000" points="629.5954,-122 512.4046,-122 512.4046,-86 629.5954,-86 629.5954,-122"/>
<text text-anchor="middle" x="571" y="-99.8" font-family="Times,serif" font-size="14.00" fill="#000000">PlayerComponent</text>
</g>
<!-- VideopageModule -->
<g id="node5" class="node">
<title>VideopageModule</title>
<polygon fill="#8dd3c7" stroke="#000000" points="388.191,-187 385.191,-191 364.191,-191 361.191,-187 267.809,-187 267.809,-151 388.191,-151 388.191,-187"/>
<text text-anchor="middle" x="328" y="-164.8" font-family="Times,serif" font-size="14.00" fill="#000000">VideopageModule</text>
</g>
<!-- PlayerComponent&#45;&gt;VideopageModule -->
<g id="edge1" class="edge">
<title>PlayerComponent&#45;&gt;VideopageModule</title>
<path fill="none" stroke="#000000" d="M571,-122.1061C571,-141.3391 571,-169 571,-169 571,-169 398.3796,-169 398.3796,-169"/>
<polygon fill="#000000" stroke="#000000" points="398.3797,-165.5001 388.3796,-169 398.3796,-172.5001 398.3797,-165.5001"/>
</g>
<!-- RecommenderComponent -->
<g id="node2" class="node">
<title>RecommenderComponent</title>
<polygon fill="#ffffb3" stroke="#000000" points="494.4692,-122 331.5308,-122 331.5308,-86 494.4692,-86 494.4692,-122"/>
<text text-anchor="middle" x="413" y="-99.8" font-family="Times,serif" font-size="14.00" fill="#000000">RecommenderComponent</text>
</g>
<!-- RecommenderComponent&#45;&gt;VideopageModule -->
<g id="edge2" class="edge">
<title>RecommenderComponent&#45;&gt;VideopageModule</title>
<path fill="none" stroke="#000000" d="M359.8054,-122.1061C359.8054,-122.1061 359.8054,-140.991 359.8054,-140.991"/>
<polygon fill="#000000" stroke="#000000" points="356.3055,-140.9909 359.8054,-150.991 363.3055,-140.991 356.3055,-140.9909"/>
</g>
<!-- VideopageComponent -->
<g id="node3" class="node">
<title>VideopageComponent</title>
<polygon fill="#ffffb3" stroke="#000000" points="313.9734,-122 172.0266,-122 172.0266,-86 313.9734,-86 313.9734,-122"/>
<text text-anchor="middle" x="243" y="-99.8" font-family="Times,serif" font-size="14.00" fill="#000000">VideopageComponent</text>
</g>
<!-- VideopageComponent&#45;&gt;VideopageModule -->
<g id="edge3" class="edge">
<title>VideopageComponent&#45;&gt;VideopageModule</title>
<path fill="none" stroke="#000000" d="M290.9457,-122.1061C290.9457,-122.1061 290.9457,-140.991 290.9457,-140.991"/>
<polygon fill="#000000" stroke="#000000" points="287.4457,-140.9909 290.9457,-150.991 294.4457,-140.991 287.4457,-140.9909"/>
</g>
<!-- WikiboxComponent -->
<g id="node4" class="node">
<title>WikiboxComponent</title>
<polygon fill="#ffffb3" stroke="#000000" points="154.3286,-122 23.6714,-122 23.6714,-86 154.3286,-86 154.3286,-122"/>
<text text-anchor="middle" x="89" y="-99.8" font-family="Times,serif" font-size="14.00" fill="#000000">WikiboxComponent</text>
</g>
<!-- WikiboxComponent&#45;&gt;VideopageModule -->
<g id="edge4" class="edge">
<title>WikiboxComponent&#45;&gt;VideopageModule</title>
<path fill="none" stroke="#000000" d="M89,-122.1061C89,-141.3391 89,-169 89,-169 89,-169 257.6902,-169 257.6902,-169"/>
<polygon fill="#000000" stroke="#000000" points="257.6902,-172.5001 267.6902,-169 257.6902,-165.5001 257.6902,-172.5001"/>
</g>
</g>
</svg>
