<?xml version="1.0" encoding="UTF-8" standalone="no"?>
<!DOCTYPE svg PUBLIC "-//W3C//DTD SVG 1.1//EN"
 "http://www.w3.org/Graphics/SVG/1.1/DTD/svg11.dtd">
<!-- Generated by graphviz version 2.40.1 (20161225.0304)
 -->
<!-- Title: dependencies Pages: 1 -->
<svg width="1616pt" height="436pt"
 viewBox="0.00 0.00 1616.00 436.00" xmlns="http://www.w3.org/2000/svg" xmlns:xlink="http://www.w3.org/1999/xlink">
<g id="graph0" class="graph" transform="scale(1 1) rotate(0) translate(4 432)">
<title>dependencies</title>
<polygon fill="#ffffff" stroke="transparent" points="-4,4 -4,-432 1612,-432 1612,4 -4,4"/>
<text text-anchor="start" x="783.0091" y="-42.4" font-family="sans-serif" font-weight="bold" font-size="14.00" fill="#000000">Legend</text>
<polygon fill="#ffffb3" stroke="transparent" points="570,-10 570,-30 590,-30 590,-10 570,-10"/>
<text text-anchor="start" x="593.629" y="-15.4" font-family="sans-serif" font-size="14.00" fill="#000000"> &#160;Declarations</text>
<polygon fill="#8dd3c7" stroke="transparent" points="683,-10 683,-30 703,-30 703,-10 683,-10"/>
<text text-anchor="start" x="706.7251" y="-15.4" font-family="sans-serif" font-size="14.00" fill="#000000"> &#160;Module</text>
<polygon fill="#80b1d3" stroke="transparent" points="769,-10 769,-30 789,-30 789,-10 769,-10"/>
<text text-anchor="start" x="792.7812" y="-15.4" font-family="sans-serif" font-size="14.00" fill="#000000"> &#160;Bootstrap</text>
<polygon fill="#fdb462" stroke="transparent" points="866,-10 866,-30 886,-30 886,-10 866,-10"/>
<text text-anchor="start" x="889.6732" y="-15.4" font-family="sans-serif" font-size="14.00" fill="#000000"> &#160;Providers</text>
<polygon fill="#fb8072" stroke="transparent" points="962,-10 962,-30 982,-30 982,-10 962,-10"/>
<text text-anchor="start" x="985.7258" y="-15.4" font-family="sans-serif" font-size="14.00" fill="#000000"> &#160;Exports</text>
<g id="clust1" class="cluster">
<title>cluster_AboutModule</title>
<polygon fill="none" stroke="#000000" stroke-dasharray="1,5" points="8,-70 8,-206 156,-206 156,-70 8,-70"/>
</g>
<g id="clust2" class="cluster">
<title>cluster_AboutModule_declarations</title>
<polygon fill="none" stroke="#000000" points="16,-78 16,-130 148,-130 148,-78 16,-78"/>
</g>
<g id="clust8" class="cluster">
<title>cluster_AppModule</title>
<polygon fill="none" stroke="#000000" stroke-dasharray="1,5" points="47,-222 47,-420 739,-420 739,-222 47,-222"/>
</g>
<g id="clust9" class="cluster">
<title>cluster_AppModule_declarations</title>
<polygon fill="none" stroke="#000000" points="609,-230 609,-282 731,-282 731,-230 609,-230"/>
</g>
<g id="clust11" class="cluster">
<title>cluster_AppModule_imports</title>
<polygon fill="none" stroke="#000000" points="209,-230 209,-282 601,-282 601,-230 209,-230"/>
</g>
<g id="clust13" class="cluster">
<title>cluster_AppModule_bootstrap</title>
<polygon fill="none" stroke="#000000" points="364,-360 364,-412 488,-412 488,-360 364,-360"/>
</g>
<g id="clust14" class="cluster">
<title>cluster_AppModule_providers</title>
<polygon fill="none" stroke="#000000" points="55,-230 55,-282 201,-282 201,-230 55,-230"/>
</g>
<g id="clust21" class="cluster">
<title>cluster_HomeModule</title>
<polygon fill="none" stroke="#000000" stroke-dasharray="1,5" points="476,-70 476,-206 624,-206 624,-70 476,-70"/>
</g>
<g id="clust22" class="cluster">
<title>cluster_HomeModule_declarations</title>
<polygon fill="none" stroke="#000000" points="484,-78 484,-130 616,-130 616,-78 484,-78"/>
</g>
<g id="clust28" class="cluster">
<title>cluster_Page404Module</title>
<polygon fill="none" stroke="#000000" stroke-dasharray="1,5" points="632,-70 632,-206 794,-206 794,-70 632,-70"/>
</g>
<g id="clust29" class="cluster">
<title>cluster_Page404Module_declarations</title>
<polygon fill="none" stroke="#000000" points="640,-78 640,-130 786,-130 786,-78 640,-78"/>
</g>
<g id="clust35" class="cluster">
<title>cluster_PageModule</title>
<polygon fill="none" stroke="#000000" stroke-dasharray="1,5" points="851,-146 851,-214 1119,-214 1119,-146 851,-146"/>
</g>
<g id="clust37" class="cluster">
<title>cluster_PageModule_imports</title>
<polygon fill="none" stroke="#000000" points="859,-154 859,-206 1111,-206 1111,-154 859,-154"/>
</g>
<g id="clust41" class="cluster">
<title>cluster_PageSharedModule</title>
<polygon fill="none" stroke="#000000" stroke-dasharray="1,5" points="164,-146 164,-214 468,-214 468,-146 164,-146"/>
</g>
<g id="clust42" class="cluster">
<title>cluster_PageSharedModule_declarations</title>
<polygon fill="none" stroke="#000000" points="322,-154 322,-206 460,-206 460,-154 322,-154"/>
</g>
<g id="clust45" class="cluster">
<title>cluster_PageSharedModule_exports</title>
<polygon fill="none" stroke="#000000" points="172,-154 172,-206 314,-206 314,-154 172,-154"/>
</g>
<g id="clust48" class="cluster">
<title>cluster_SearchModule</title>
<polygon fill="none" stroke="#000000" stroke-dasharray="1,5" points="802,-70 802,-138 954,-138 954,-70 802,-70"/>
</g>
<g id="clust49" class="cluster">
<title>cluster_SearchModule_declarations</title>
<polygon fill="none" stroke="#000000" points="810,-78 810,-130 946,-130 946,-78 810,-78"/>
</g>
<g id="clust55" class="cluster">
<title>cluster_VideopageModule</title>
<polygon fill="none" stroke="#000000" stroke-dasharray="1,5" points="962,-70 962,-138 1600,-138 1600,-70 962,-70"/>
</g>
<g id="clust56" class="cluster">
<title>cluster_VideopageModule_declarations</title>
<polygon fill="none" stroke="#000000" points="970,-78 970,-130 1592,-130 1592,-78 970,-78"/>
</g>
<!-- AboutComponent -->
<g id="node1" class="node">
<title>AboutComponent</title>
<polygon fill="#ffffb3" stroke="#000000" points="140.3301,-122 23.6699,-122 23.6699,-86 140.3301,-86 140.3301,-122"/>
<text text-anchor="middle" x="82" y="-99.8" font-family="Times,serif" font-size="14.00" fill="#000000">AboutComponent</text>
</g>
<!-- AboutModule -->
<g id="node2" class="node">
<title>AboutModule</title>
<polygon fill="#8dd3c7" stroke="#000000" points="138.0481,-198 135.0481,-202 114.0481,-202 111.0481,-198 43.9519,-198 43.9519,-162 138.0481,-162 138.0481,-198"/>
<text text-anchor="middle" x="91" y="-175.8" font-family="Times,serif" font-size="14.00" fill="#000000">AboutModule</text>
</g>
<!-- AboutComponent&#45;&gt;AboutModule -->
<g id="edge1" class="edge">
<title>AboutComponent&#45;&gt;AboutModule</title>
<path fill="none" stroke="#000000" d="M91,-122.0109C91,-122.0109 91,-151.855 91,-151.855"/>
<polygon fill="#000000" stroke="#000000" points="87.5001,-151.8549 91,-161.855 94.5001,-151.855 87.5001,-151.8549"/>
</g>
<!-- PageModule -->
<g id="node6" class="node">
<title>PageModule</title>
<polygon fill="#8dd3c7" stroke="#000000" points="593.2619,-274 590.2619,-278 569.2619,-278 566.2619,-274 506.7381,-274 506.7381,-238 593.2619,-238 593.2619,-274"/>
<text text-anchor="middle" x="550" y="-251.8" font-family="Times,serif" font-size="14.00" fill="#000000">PageModule</text>
</g>
<!-- AboutModule&#45;&gt;PageModule -->
<g id="edge10" class="edge">
<title>AboutModule&#45;&gt;PageModule</title>
<path fill="none" stroke="#000000" d="M100.8065,-198.0579C100.8065,-202.4945 100.8065,-206 100.8065,-206 100.8065,-206 523.9715,-206 523.9715,-206 523.9715,-206 523.9715,-227.9489 523.9715,-227.9489"/>
<polygon fill="#000000" stroke="#000000" points="520.4716,-227.9488 523.9715,-237.9489 527.4716,-227.9489 520.4716,-227.9488"/>
</g>
<!-- AppComponent -->
<g id="node3" class="node">
<title>AppComponent</title>
<polygon fill="#ffffb3" stroke="#000000" points="722.9399,-274 617.0601,-274 617.0601,-238 722.9399,-238 722.9399,-274"/>
<text text-anchor="middle" x="670" y="-251.8" font-family="Times,serif" font-size="14.00" fill="#000000">AppComponent</text>
</g>
<!-- AppModule -->
<g id="node4" class="node">
<title>AppModule</title>
<polygon fill="#8dd3c7" stroke="#000000" points="467.6571,-339 464.6571,-343 443.6571,-343 440.6571,-339 384.3429,-339 384.3429,-303 467.6571,-303 467.6571,-339"/>
<text text-anchor="middle" x="426" y="-316.8" font-family="Times,serif" font-size="14.00" fill="#000000">AppModule</text>
</g>
<!-- AppComponent&#45;&gt;AppModule -->
<g id="edge2" class="edge">
<title>AppComponent&#45;&gt;AppModule</title>
<path fill="none" stroke="#000000" d="M670,-274.2843C670,-295.3211 670,-327 670,-327 670,-327 477.6679,-327 477.6679,-327"/>
<polygon fill="#000000" stroke="#000000" points="477.6679,-323.5001 467.6679,-327 477.6678,-330.5001 477.6679,-323.5001"/>
</g>
<!-- AppComponent  -->
<g id="node8" class="node">
<title>AppComponent </title>
<polygon fill="#80b1d3" stroke="#000000" points="480.439,-404 371.561,-404 371.561,-368 480.439,-368 480.439,-404"/>
<text text-anchor="middle" x="426" y="-381.8" font-family="Times,serif" font-size="14.00" fill="#000000">AppComponent </text>
</g>
<!-- AppModule&#45;&gt;AppComponent  -->
<g id="edge6" class="edge">
<title>AppModule&#45;&gt;AppComponent </title>
<path fill="none" stroke="#000000" stroke-dasharray="1,5" d="M426,-339.1061C426,-339.1061 426,-357.991 426,-357.991"/>
<polygon fill="#000000" stroke="#000000" points="422.5001,-357.9909 426,-367.991 429.5001,-357.991 422.5001,-357.9909"/>
</g>
<!-- AppRoutingModule -->
<g id="node5" class="node">
<title>AppRoutingModule</title>
<polygon fill="#8dd3c7" stroke="#000000" points="345.2744,-274 342.2744,-278 321.2744,-278 318.2744,-274 216.7256,-274 216.7256,-238 345.2744,-238 345.2744,-274"/>
<text text-anchor="middle" x="281" y="-251.8" font-family="Times,serif" font-size="14.00" fill="#000000">AppRoutingModule</text>
</g>
<!-- AppRoutingModule&#45;&gt;AppModule -->
<g id="edge3" class="edge">
<title>AppRoutingModule&#45;&gt;AppModule</title>
<path fill="none" stroke="#000000" d="M281,-274.0225C281,-291.3734 281,-315 281,-315 281,-315 374.06,-315 374.06,-315"/>
<polygon fill="#000000" stroke="#000000" points="374.06,-318.5001 384.06,-315 374.06,-311.5001 374.06,-318.5001"/>
</g>
<!-- PageModule&#45;&gt;AppModule -->
<g id="edge4" class="edge">
<title>PageModule&#45;&gt;AppModule</title>
<path fill="none" stroke="#000000" d="M550,-274.0225C550,-291.3734 550,-315 550,-315 550,-315 477.9807,-315 477.9807,-315"/>
<polygon fill="#000000" stroke="#000000" points="477.9808,-311.5001 467.9807,-315 477.9807,-318.5001 477.9808,-311.5001"/>
</g>
<!-- PageSharedModule -->
<g id="node7" class="node">
<title>PageSharedModule</title>
<polygon fill="#8dd3c7" stroke="#000000" points="488.6345,-274 485.6345,-278 464.6345,-278 461.6345,-274 363.3655,-274 363.3655,-238 488.6345,-238 488.6345,-274"/>
<text text-anchor="middle" x="426" y="-251.8" font-family="Times,serif" font-size="14.00" fill="#000000">PageSharedModule</text>
</g>
<!-- PageSharedModule&#45;&gt;AppModule -->
<g id="edge5" class="edge">
<title>PageSharedModule&#45;&gt;AppModule</title>
<path fill="none" stroke="#000000" d="M426,-274.1061C426,-274.1061 426,-292.991 426,-292.991"/>
<polygon fill="#000000" stroke="#000000" points="422.5001,-292.9909 426,-302.991 429.5001,-292.991 422.5001,-292.9909"/>
</g>
<!-- NavbarComponent  -->
<g id="node17" class="node">
<title>NavbarComponent </title>
<polygon fill="#fb8072" stroke="#000000" points="306.0288,-198 179.9712,-198 179.9712,-162 306.0288,-162 306.0288,-198"/>
<text text-anchor="middle" x="243" y="-175.8" font-family="Times,serif" font-size="14.00" fill="#000000">NavbarComponent </text>
</g>
<!-- PageSharedModule&#45;&gt;NavbarComponent  -->
<g id="edge16" class="edge">
<title>PageSharedModule&#45;&gt;NavbarComponent </title>
<path fill="none" stroke="#000000" stroke-dasharray="5,2" d="M392.8768,-237.9421C392.8768,-233.5055 392.8768,-230 392.8768,-230 392.8768,-230 261.3137,-230 261.3137,-230 261.3137,-230 261.3137,-208.0511 261.3137,-208.0511"/>
<polygon fill="#000000" stroke="#000000" points="264.8137,-208.0511 261.3137,-198.0511 257.8137,-208.0512 264.8137,-208.0511"/>
</g>
<!-- LyricsService -->
<g id="node9" class="node">
<title>LyricsService</title>
<ellipse fill="#fdb462" stroke="#000000" cx="128" cy="-256" rx="64.8215" ry="18"/>
<text text-anchor="middle" x="128" y="-251.8" font-family="Times,serif" font-size="14.00" fill="#000000">LyricsService</text>
</g>
<!-- LyricsService&#45;&gt;AppModule -->
<g id="edge7" class="edge">
<title>LyricsService&#45;&gt;AppModule</title>
<path fill="none" stroke="#000000" d="M128,-274.2843C128,-295.3211 128,-327 128,-327 128,-327 374.2506,-327 374.2506,-327"/>
<polygon fill="#000000" stroke="#000000" points="374.2506,-330.5001 384.2506,-327 374.2506,-323.5001 374.2506,-330.5001"/>
</g>
<!-- HomeComponent -->
<g id="node10" class="node">
<title>HomeComponent</title>
<polygon fill="#ffffb3" stroke="#000000" points="607.5451,-122 492.4549,-122 492.4549,-86 607.5451,-86 607.5451,-122"/>
<text text-anchor="middle" x="550" y="-99.8" font-family="Times,serif" font-size="14.00" fill="#000000">HomeComponent</text>
</g>
<!-- HomeModule -->
<g id="node11" class="node">
<title>HomeModule</title>
<polygon fill="#8dd3c7" stroke="#000000" points="596.7619,-198 593.7619,-202 572.7619,-202 569.7619,-198 503.2381,-198 503.2381,-162 596.7619,-162 596.7619,-198"/>
<text text-anchor="middle" x="550" y="-175.8" font-family="Times,serif" font-size="14.00" fill="#000000">HomeModule</text>
</g>
<!-- HomeComponent&#45;&gt;HomeModule -->
<g id="edge8" class="edge">
<title>HomeComponent&#45;&gt;HomeModule</title>
<path fill="none" stroke="#000000" d="M550,-122.0109C550,-122.0109 550,-151.855 550,-151.855"/>
<polygon fill="#000000" stroke="#000000" points="546.5001,-151.8549 550,-161.855 553.5001,-151.855 546.5001,-151.8549"/>
</g>
<!-- HomeModule&#45;&gt;PageModule -->
<g id="edge11" class="edge">
<title>HomeModule&#45;&gt;PageModule</title>
<path fill="none" stroke="#000000" d="M541.3238,-198.0109C541.3238,-198.0109 541.3238,-227.855 541.3238,-227.855"/>
<polygon fill="#000000" stroke="#000000" points="537.8239,-227.8549 541.3238,-237.855 544.8239,-227.855 537.8239,-227.8549"/>
</g>
<!-- Page404Component -->
<g id="node12" class="node">
<title>Page404Component</title>
<polygon fill="#ffffb3" stroke="#000000" points="777.545,-122 648.455,-122 648.455,-86 777.545,-86 777.545,-122"/>
<text text-anchor="middle" x="713" y="-99.8" font-family="Times,serif" font-size="14.00" fill="#000000">Page404Component</text>
</g>
<!-- Page404Module -->
<g id="node13" class="node">
<title>Page404Module</title>
<polygon fill="#8dd3c7" stroke="#000000" points="756.7619,-198 753.7619,-202 732.7619,-202 729.7619,-198 649.2381,-198 649.2381,-162 756.7619,-162 756.7619,-198"/>
<text text-anchor="middle" x="703" y="-175.8" font-family="Times,serif" font-size="14.00" fill="#000000">Page404Module</text>
</g>
<!-- Page404Component&#45;&gt;Page404Module -->
<g id="edge9" class="edge">
<title>Page404Component&#45;&gt;Page404Module</title>
<path fill="none" stroke="#000000" d="M703,-122.0109C703,-122.0109 703,-151.855 703,-151.855"/>
<polygon fill="#000000" stroke="#000000" points="699.5001,-151.8549 703,-161.855 706.5001,-151.855 699.5001,-151.8549"/>
</g>
<!-- Page404Module&#45;&gt;PageModule -->
<g id="edge12" class="edge">
<title>Page404Module&#45;&gt;PageModule</title>
<path fill="none" stroke="#000000" d="M649.0646,-180C629.6893,-180 612.5263,-180 612.5263,-180 612.5263,-180 612.5263,-256 612.5263,-256 612.5263,-256 603.4266,-256 603.4266,-256"/>
<polygon fill="#000000" stroke="#000000" points="603.4266,-252.5001 593.4266,-256 603.4266,-259.5001 603.4266,-252.5001"/>
</g>
<!-- SearchModule -->
<g id="node14" class="node">
<title>SearchModule</title>
<polygon fill="#8dd3c7" stroke="#000000" points="964.6375,-198 961.6375,-202 940.6375,-202 937.6375,-198 867.3625,-198 867.3625,-162 964.6375,-162 964.6375,-198"/>
<text text-anchor="middle" x="916" y="-175.8" font-family="Times,serif" font-size="14.00" fill="#000000">SearchModule</text>
</g>
<!-- SearchModule&#45;&gt;PageModule -->
<g id="edge13" class="edge">
<title>SearchModule&#45;&gt;PageModule</title>
<path fill="none" stroke="#000000" d="M916,-198.1944C916,-206.2782 916,-214 916,-214 916,-214 558.6762,-214 558.6762,-214 558.6762,-214 558.6762,-227.9445 558.6762,-227.9445"/>
<polygon fill="#000000" stroke="#000000" points="555.1763,-227.9444 558.6762,-237.9445 562.1763,-227.9445 555.1763,-227.9444"/>
</g>
<!-- VideopageModule -->
<g id="node15" class="node">
<title>VideopageModule</title>
<polygon fill="#8dd3c7" stroke="#000000" points="1103.191,-198 1100.191,-202 1079.191,-202 1076.191,-198 982.809,-198 982.809,-162 1103.191,-162 1103.191,-198"/>
<text text-anchor="middle" x="1043" y="-175.8" font-family="Times,serif" font-size="14.00" fill="#000000">VideopageModule</text>
</g>
<!-- VideopageModule&#45;&gt;PageModule -->
<g id="edge14" class="edge">
<title>VideopageModule&#45;&gt;PageModule</title>
<path fill="none" stroke="#000000" d="M1043,-198.0555C1043,-209.439 1043,-222 1043,-222 1043,-222 576.0285,-222 576.0285,-222 576.0285,-222 576.0285,-227.8056 576.0285,-227.8056"/>
<polygon fill="#000000" stroke="#000000" points="572.5286,-227.8055 576.0285,-237.8056 579.5286,-227.8056 572.5286,-227.8055"/>
</g>
<!-- NavbarComponent -->
<g id="node16" class="node">
<title>NavbarComponent</title>
<polygon fill="#ffffb3" stroke="#000000" points="452.0297,-198 329.9703,-198 329.9703,-162 452.0297,-162 452.0297,-198"/>
<text text-anchor="middle" x="391" y="-175.8" font-family="Times,serif" font-size="14.00" fill="#000000">NavbarComponent</text>
</g>
<!-- NavbarComponent&#45;&gt;PageSharedModule -->
<g id="edge15" class="edge">
<title>NavbarComponent&#45;&gt;PageSharedModule</title>
<path fill="none" stroke="#000000" d="M422.5706,-198.0109C422.5706,-198.0109 422.5706,-227.855 422.5706,-227.855"/>
<polygon fill="#000000" stroke="#000000" points="419.0707,-227.8549 422.5706,-237.855 426.0707,-227.855 419.0707,-227.8549"/>
</g>
<!-- SearchComponent -->
<g id="node18" class="node">
<title>SearchComponent</title>
<polygon fill="#ffffb3" stroke="#000000" points="937.9201,-122 818.0799,-122 818.0799,-86 937.9201,-86 937.9201,-122"/>
<text text-anchor="middle" x="878" y="-99.8" font-family="Times,serif" font-size="14.00" fill="#000000">SearchComponent</text>
</g>
<!-- SearchComponent&#45;&gt;SearchModule -->
<g id="edge17" class="edge">
<title>SearchComponent&#45;&gt;SearchModule</title>
<path fill="none" stroke="#000000" d="M902.4457,-122.0109C902.4457,-122.0109 902.4457,-151.855 902.4457,-151.855"/>
<polygon fill="#000000" stroke="#000000" points="898.9457,-151.8549 902.4457,-161.855 905.9457,-151.855 898.9457,-151.8549"/>
</g>
<!-- PlayerComponent -->
<g id="node19" class="node">
<title>PlayerComponent</title>
<polygon fill="#ffffb3" stroke="#000000" points="1583.5954,-122 1466.4046,-122 1466.4046,-86 1583.5954,-86 1583.5954,-122"/>
<text text-anchor="middle" x="1525" y="-99.8" font-family="Times,serif" font-size="14.00" fill="#000000">PlayerComponent</text>
</g>
<!-- PlayerComponent&#45;&gt;VideopageModule -->
<g id="edge18" class="edge">
<title>PlayerComponent&#45;&gt;VideopageModule</title>
<path fill="none" stroke="#000000" d="M1525,-122.0263C1525,-146.9773 1525,-189 1525,-189 1525,-189 1113.5576,-189 1113.5576,-189"/>
<polygon fill="#000000" stroke="#000000" points="1113.5576,-185.5001 1103.5576,-189 1113.5575,-192.5001 1113.5576,-185.5001"/>
</g>
<!-- RecommenderComponent -->
<g id="node20" class="node">
<title>RecommenderComponent</title>
<polygon fill="#ffffb3" stroke="#000000" points="1448.4692,-122 1285.5308,-122 1285.5308,-86 1448.4692,-86 1448.4692,-122"/>
<text text-anchor="middle" x="1367" y="-99.8" font-family="Times,serif" font-size="14.00" fill="#000000">RecommenderComponent</text>
</g>
<!-- RecommenderComponent&#45;&gt;VideopageModule -->
<g id="edge19" class="edge">
<title>RecommenderComponent&#45;&gt;VideopageModule</title>
<path fill="none" stroke="#000000" d="M1367,-122.0109C1367,-144.4852 1367,-180 1367,-180 1367,-180 1113.1826,-180 1113.1826,-180"/>
<polygon fill="#000000" stroke="#000000" points="1113.1826,-176.5001 1103.1826,-180 1113.1826,-183.5001 1113.1826,-176.5001"/>
</g>
<!-- VideopageComponent -->
<g id="node21" class="node">
<title>VideopageComponent</title>
<polygon fill="#ffffb3" stroke="#000000" points="1267.9734,-122 1126.0266,-122 1126.0266,-86 1267.9734,-86 1267.9734,-122"/>
<text text-anchor="middle" x="1197" y="-99.8" font-family="Times,serif" font-size="14.00" fill="#000000">VideopageComponent</text>
</g>
<!-- VideopageComponent&#45;&gt;VideopageModule -->
<g id="edge20" class="edge">
<title>VideopageComponent&#45;&gt;VideopageModule</title>
<path fill="none" stroke="#000000" d="M1197,-122.308C1197,-142.1455 1197,-171 1197,-171 1197,-171 1113.4229,-171 1113.4229,-171"/>
<polygon fill="#000000" stroke="#000000" points="1113.4229,-167.5001 1103.4229,-171 1113.4228,-174.5001 1113.4229,-167.5001"/>
</g>
<!-- WikiboxComponent -->
<g id="node22" class="node">
<title>WikiboxComponent</title>
<polygon fill="#ffffb3" stroke="#000000" points="1108.3286,-122 977.6714,-122 977.6714,-86 1108.3286,-86 1108.3286,-122"/>
<text text-anchor="middle" x="1043" y="-99.8" font-family="Times,serif" font-size="14.00" fill="#000000">WikiboxComponent</text>
</g>
<!-- WikiboxComponent&#45;&gt;VideopageModule -->
<g id="edge21" class="edge">
<title>WikiboxComponent&#45;&gt;VideopageModule</title>
<path fill="none" stroke="#000000" d="M1043,-122.0109C1043,-122.0109 1043,-151.855 1043,-151.855"/>
<polygon fill="#000000" stroke="#000000" points="1039.5001,-151.8549 1043,-161.855 1046.5001,-151.855 1039.5001,-151.8549"/>
</g>
</g>
</svg>
